<svg width="20.500732" height="20.500732" viewBox="0 0 20.5007 20.5007" fill="none" xmlns="http://www.w3.org/2000/svg" xmlns:xlink="http://www.w3.org/1999/xlink">
	<desc>
			Created with Pixso.
	</desc>
	<defs/>
	<mask id="mask_3_764" fill="white">
		<path id="Icon color" d="M19.6152 18.1255L19.894 17.8748L19.8875 17.8674L19.8806 17.8604L19.6152 18.1255ZM15.3938 13.8982L15.1255 14.1599L15.1284 14.1631L15.3938 13.8982ZM19.5942 18.8547L19.3303 18.5881L19.3289 18.5896L19.5942 18.8547ZM18.8555 19.5945L18.5901 19.3293L18.5889 19.3306L18.8555 19.5945ZM18.1062 19.5945L18.3726 19.3306L18.3713 19.3293L18.1062 19.5945ZM13.8848 15.3672L13.6191 15.6321L13.6194 15.6321L13.8848 15.3672ZM13.5681 14.9866L13.8767 14.7737L13.8726 14.7678L13.8682 14.762L13.5681 14.9866ZM12.7766 13.9299L13.0767 13.7051L12.8447 13.3953L12.5422 13.637L12.7766 13.9299ZM8.16455 15.5469L8.16479 15.1719L8.16333 15.1719L8.16455 15.5469ZM0.938232 9.80225L0.572754 9.88599L0.938232 9.80225ZM4.94385 1.479L4.78149 1.14087L4.94385 1.479ZM13.9331 3.55981L13.6389 3.79224L13.6389 3.79224L13.9331 3.55981ZM13.8848 12.7991L13.5928 12.5635L13.3391 12.8779L13.6714 13.1074L13.8848 12.7991ZM14.9399 13.5283L14.7268 13.8369L14.7375 13.844L14.9399 13.5283ZM11.896 11.8853L12.1614 12.1501L12.1614 12.1501L11.896 11.8853ZM19.8806 17.8604L15.6592 13.6331L15.1284 14.1631L19.3499 18.3904L19.8806 17.8604ZM19.8579 19.1211C20.2004 18.7817 20.2163 18.2332 19.894 17.8748L19.3364 18.3762C19.3911 18.437 19.3884 18.5305 19.3303 18.5881L19.8579 19.1211ZM19.1208 19.8594L19.8594 19.1196L19.3289 18.5896L18.5901 19.3293L19.1208 19.8594ZM18.4807 20.1257C18.7217 20.1257 18.9524 20.0293 19.1218 19.8584L18.5889 19.3306C18.5603 19.3596 18.5212 19.3757 18.4807 19.3757L18.4807 20.1257ZM17.8396 19.8584C18.009 20.0293 18.24 20.1257 18.4807 20.1257L18.4807 19.3757C18.4402 19.3757 18.4011 19.3596 18.3726 19.3306L17.8396 19.8584ZM13.6194 15.6321L17.8408 19.8594L18.3713 19.3293L14.1499 15.1021L13.6194 15.6321ZM13.2593 15.1997C13.366 15.3542 13.4866 15.499 13.6191 15.6321L14.1501 15.1023C14.0493 15.0012 13.9578 14.8914 13.8767 14.7737L13.2593 15.1997ZM12.4763 14.1545L13.2678 15.2114L13.8682 14.762L13.0767 13.7051L12.4763 14.1545ZM8.16455 15.9219C9.92578 15.9224 11.6345 15.323 13.0107 14.2227L12.5422 13.637C11.2991 14.6311 9.75537 15.1721 8.16479 15.1719L8.16455 15.9219ZM0.572754 9.88599C1.38354 13.4275 4.53662 15.9343 8.16602 15.9219L8.16333 15.1719C4.8855 15.1831 2.03662 12.9189 1.30396 9.71851L0.572754 9.88599ZM4.78149 1.14087C1.50952 2.71265 -0.238037 6.34448 0.572754 9.88599L1.30396 9.71851C0.571045 6.51807 2.15039 3.23682 5.1062 1.81689L4.78149 1.14087ZM14.2275 3.32739C11.9763 0.477295 8.05347 -0.430908 4.78149 1.14087L5.1062 1.81689C8.06177 0.397217 11.6052 1.21729 13.6389 3.79224L14.2275 3.32739ZM14.1765 13.0344C16.4573 10.2085 16.4785 6.17725 14.2275 3.32739L13.6389 3.79224C15.6729 6.36743 15.6536 10.01 13.5928 12.5635L14.1765 13.0344ZM15.1531 13.2197L14.0979 12.4905L13.6714 13.1074L14.7268 13.8367L15.1531 13.2197ZM15.6621 13.6362C15.5056 13.4756 15.3311 13.3335 15.1423 13.2124L14.7375 13.844C14.8784 13.9341 15.0085 14.0403 15.1255 14.1599L15.6621 13.6362ZM8.16479 13.0579C5.45801 13.0579 3.26294 10.8604 3.26294 8.14868L2.51294 8.14868C2.51294 11.2737 5.04297 13.8079 8.16479 13.8079L8.16479 13.0579ZM11.6306 11.6201C10.7114 12.5408 9.4646 13.0579 8.16479 13.0579L8.16479 13.8079C9.66382 13.8079 11.1016 13.2114 12.1614 12.1501L11.6306 11.6201ZM13.0667 8.14868C13.0667 9.45093 12.55 10.6995 11.6306 11.6201L12.1614 12.1501C13.2212 11.0889 13.8167 9.64941 13.8167 8.14868L13.0667 8.14868ZM8.16479 3.2395C10.8716 3.2395 13.0667 5.43701 13.0667 8.14868L13.8167 8.14868C13.8167 5.02368 11.2866 2.4895 8.16479 2.4895L8.16479 3.2395ZM3.26294 8.14868C3.26294 5.43701 5.45801 3.2395 8.16479 3.2395L8.16479 2.4895C5.04297 2.4895 2.51294 5.02368 2.51294 8.14868L3.26294 8.14868Z" fill="" fill-opacity="1.000000" fill-rule="nonzero"/>
	</mask>
	<path id="Icon color" d="M19.6152 18.1255L19.894 17.8748L19.8875 17.8674L19.8806 17.8604L19.6152 18.1255ZM15.3938 13.8982L15.1255 14.1599L15.1284 14.1631L15.3938 13.8982ZM19.5942 18.8547L19.3303 18.5881L19.3289 18.5896L19.5942 18.8547ZM18.8555 19.5945L18.5901 19.3293L18.5889 19.3306L18.8555 19.5945ZM18.1062 19.5945L18.3726 19.3306L18.3713 19.3293L18.1062 19.5945ZM13.8848 15.3672L13.6191 15.6321L13.6194 15.6321L13.8848 15.3672ZM13.5681 14.9866L13.8767 14.7737L13.8726 14.7678L13.8682 14.762L13.5681 14.9866ZM12.7766 13.9299L13.0767 13.7051L12.8447 13.3953L12.5422 13.637L12.7766 13.9299ZM8.16455 15.5469L8.16479 15.1719L8.16333 15.1719L8.16455 15.5469ZM0.938232 9.80225L0.572754 9.88599L0.938232 9.80225ZM4.94385 1.479L4.78149 1.14087L4.94385 1.479ZM13.9331 3.55981L13.6389 3.79224L13.6389 3.79224L13.9331 3.55981ZM13.8848 12.7991L13.5928 12.5635L13.3391 12.8779L13.6714 13.1074L13.8848 12.7991ZM14.9399 13.5283L14.7268 13.8369L14.7375 13.844L14.9399 13.5283ZM11.896 11.8853L12.1614 12.1501L12.1614 12.1501L11.896 11.8853ZM19.8806 17.8604L15.6592 13.6331L15.1284 14.1631L19.3499 18.3904L19.8806 17.8604ZM19.8579 19.1211C20.2004 18.7817 20.2163 18.2332 19.894 17.8748L19.3364 18.3762C19.3911 18.437 19.3884 18.5305 19.3303 18.5881L19.8579 19.1211ZM19.1208 19.8594L19.8594 19.1196L19.3289 18.5896L18.5901 19.3293L19.1208 19.8594ZM18.4807 20.1257C18.7217 20.1257 18.9524 20.0293 19.1218 19.8584L18.5889 19.3306C18.5603 19.3596 18.5212 19.3757 18.4807 19.3757L18.4807 20.1257ZM17.8396 19.8584C18.009 20.0293 18.24 20.1257 18.4807 20.1257L18.4807 19.3757C18.4402 19.3757 18.4011 19.3596 18.3726 19.3306L17.8396 19.8584ZM13.6194 15.6321L17.8408 19.8594L18.3713 19.3293L14.1499 15.1021L13.6194 15.6321ZM13.2593 15.1997C13.366 15.3542 13.4866 15.499 13.6191 15.6321L14.1501 15.1023C14.0493 15.0012 13.9578 14.8914 13.8767 14.7737L13.2593 15.1997ZM12.4763 14.1545L13.2678 15.2114L13.8682 14.762L13.0767 13.7051L12.4763 14.1545ZM8.16455 15.9219C9.92578 15.9224 11.6345 15.323 13.0107 14.2227L12.5422 13.637C11.2991 14.6311 9.75537 15.1721 8.16479 15.1719L8.16455 15.9219ZM0.572754 9.88599C1.38354 13.4275 4.53662 15.9343 8.16602 15.9219L8.16333 15.1719C4.8855 15.1831 2.03662 12.9189 1.30396 9.71851L0.572754 9.88599ZM4.78149 1.14087C1.50952 2.71265 -0.238037 6.34448 0.572754 9.88599L1.30396 9.71851C0.571045 6.51807 2.15039 3.23682 5.1062 1.81689L4.78149 1.14087ZM14.2275 3.32739C11.9763 0.477295 8.05347 -0.430908 4.78149 1.14087L5.1062 1.81689C8.06177 0.397217 11.6052 1.21729 13.6389 3.79224L14.2275 3.32739ZM14.1765 13.0344C16.4573 10.2085 16.4785 6.17725 14.2275 3.32739L13.6389 3.79224C15.6729 6.36743 15.6536 10.01 13.5928 12.5635L14.1765 13.0344ZM15.1531 13.2197L14.0979 12.4905L13.6714 13.1074L14.7268 13.8367L15.1531 13.2197ZM15.6621 13.6362C15.5056 13.4756 15.3311 13.3335 15.1423 13.2124L14.7375 13.844C14.8784 13.9341 15.0085 14.0403 15.1255 14.1599L15.6621 13.6362ZM8.16479 13.0579C5.45801 13.0579 3.26294 10.8604 3.26294 8.14868L2.51294 8.14868C2.51294 11.2737 5.04297 13.8079 8.16479 13.8079L8.16479 13.0579ZM11.6306 11.6201C10.7114 12.5408 9.4646 13.0579 8.16479 13.0579L8.16479 13.8079C9.66382 13.8079 11.1016 13.2114 12.1614 12.1501L11.6306 11.6201ZM13.0667 8.14868C13.0667 9.45093 12.55 10.6995 11.6306 11.6201L12.1614 12.1501C13.2212 11.0889 13.8167 9.64941 13.8167 8.14868L13.0667 8.14868ZM8.16479 3.2395C10.8716 3.2395 13.0667 5.43701 13.0667 8.14868L13.8167 8.14868C13.8167 5.02368 11.2866 2.4895 8.16479 2.4895L8.16479 3.2395ZM3.26294 8.14868C3.26294 5.43701 5.45801 3.2395 8.16479 3.2395L8.16479 2.4895C5.04297 2.4895 2.51294 5.02368 2.51294 8.14868L3.26294 8.14868Z" fill="#000000" fill-opacity="1.000000" fill-rule="nonzero" mask="url(#mask_3_764)"/>
	<path id="Icon color" d="M19.3645 17.8464L19.6433 17.5959L19.894 17.8748L19.6152 18.1255L19.6086 18.1182L19.8875 17.8674L19.6223 18.1323L19.6152 18.1255L19.8806 17.8604L20.1455 18.1257L19.8801 18.3909L19.6152 18.1255L19.3645 17.8464ZM19.866 18.4043L19.3503 17.8601L19.8809 17.3301L20.1599 17.6094L20.4236 17.9031L19.866 18.4043ZM15.6558 14.1665L15.3872 14.4285L15.1255 14.1599L15.3906 13.895L15.3938 13.8982L15.1284 14.1631L14.8635 13.8977L15.1289 13.6328L15.6558 14.1665ZM15.1318 13.6296L15.3938 13.8982L15.6587 14.1636L15.1282 14.6934L14.592 14.1565L15.1318 13.6296ZM19.3276 19.1187L19.0637 18.8521L19.3303 18.5881L19.5955 18.8533L19.5942 18.8547L19.3289 18.5896L19.5938 18.3242L19.8591 18.5894L19.3276 19.1187ZM19.8606 18.5908L19.5942 18.8547L19.3291 19.1201L18.7983 18.5901L19.3313 18.0564L19.8606 18.5908ZM18.5903 19.8599L18.325 19.5947L18.5901 19.3293L18.8567 19.5933L18.8555 19.5942L18.5889 19.3306L18.8528 19.0642L19.1194 19.3279L18.5903 19.8599ZM19.1204 19.3291L18.8555 19.5945L18.5916 19.8608L18.0588 19.3333L18.5884 18.7979L19.1204 19.3291ZM17.8423 19.3279L18.1086 19.0642L18.3726 19.3306L18.1069 19.5952L18.1057 19.5942L18.3713 19.3293L18.6365 19.5947L18.3711 19.8599L17.8423 19.3279ZM18.3699 19.8608L18.1062 19.5945L17.8411 19.3291L18.3721 18.7988L18.9036 19.3323L18.3699 19.8608ZM14.1494 15.6326L13.884 15.8975L13.6191 15.6321L13.8843 15.3669L13.8845 15.3669L13.6194 15.6321L13.3542 15.3667L13.6196 15.1018L14.1494 15.6326ZM13.6199 15.1016L13.8848 15.3672L14.1497 15.6326L13.6191 16.1624L13.0886 15.6316L13.6199 15.1016ZM13.3552 14.678L13.6638 14.4651L13.8767 14.7737L13.5681 14.9866L13.564 14.9807L13.8726 14.7678L13.5725 14.9924L13.5681 14.9866L13.8682 14.762L14.093 15.062L13.7927 15.2869L13.5681 14.9866L13.3552 14.678ZM13.781 15.2954L13.3433 14.6865L13.9436 14.2368L14.177 14.5488L14.3984 14.8694L13.781 15.2954ZM12.5518 13.6296L12.8518 13.4048L13.0767 13.7051L12.7766 13.9299L12.5444 13.6201L12.8447 13.3953L13.0789 13.688L12.7766 13.9299L12.5422 13.637L12.8352 13.4028L13.0693 13.6956L12.7766 13.9299L12.5518 13.6296ZM12.7104 14.4478L12.0151 13.5784L12.9128 12.8606L13.6016 13.7803L13.0012 14.23L12.7104 14.4478ZM7.78955 15.5466L7.78979 15.1716L8.16479 15.1719L8.16626 15.5469L8.16479 15.5469L8.16333 15.1719L8.53833 15.1704L8.53955 15.5454L7.78955 15.5466ZM8.53955 15.5469L8.16455 15.5469L7.78955 15.5481L7.78711 14.7983L8.53979 14.7952L8.53955 15.5469ZM1.02197 10.1677L0.656494 10.2515L0.489014 9.52026L0.854492 9.43677L1.02197 10.1677ZM0.854492 9.43677L0.938232 9.80225L1.02197 10.1677L0.656494 10.2515L0.572754 9.88599L0.489014 9.52026L0.854492 9.43677ZM4.60571 1.64136L4.44336 1.30322L5.11938 0.978516L5.28174 1.31665L4.60571 1.64136ZM5.28174 1.31665L4.94385 1.479L4.60571 1.64136L4.44336 1.30322L4.78149 1.14087L5.11938 0.978516L5.28174 1.31665ZM14.1655 3.854L13.8713 4.08643L13.4065 3.49805L13.7007 3.26562L14.1655 3.854ZM13.7007 3.26562L13.9331 3.55981L14.1655 3.854L13.8713 4.08643L13.6389 3.79224L13.4065 3.49805L13.7007 3.26562ZM13.6492 13.0908L13.3574 12.8552L13.5928 12.5635L13.8848 12.7991L13.6309 13.1135L13.3391 12.8779L13.5522 12.5693L13.8848 12.7991L13.6714 13.1074L13.363 12.8943L13.5762 12.5859L13.8848 12.7991L13.6492 13.0908ZM14.3911 12.7258L13.7668 13.6292L12.7935 12.9568L13.5366 12.0361L14.1201 12.5073L14.3911 12.7258ZM15.2485 13.7415L15.0352 14.05L14.7268 13.8369L14.929 13.5212L14.9399 13.5283L14.7375 13.844L14.4219 13.6416L14.6243 13.3259L14.9399 13.5283L15.2485 13.7415ZM14.6316 13.3152L15.2556 13.7305L14.8511 14.3621L14.1975 13.9431L14.6316 13.3152ZM12.1611 11.6199L12.4263 11.8848L11.8965 12.4155L11.6311 12.1506L12.1611 11.6199ZM11.6311 12.1506L11.896 11.8853L12.1611 11.6199L12.4263 11.8848L12.1614 12.1501L11.8965 12.4155L11.6311 12.1506ZM19.6152 18.1255L15.3938 13.8982L15.6592 13.6331L15.9241 13.8984L15.3936 14.4285L15.1284 14.1631L15.3938 13.8982L19.6152 18.1255L19.3499 18.3904L19.085 18.125L19.6157 17.5952L19.8806 17.8604L19.6152 18.1255ZM20.4109 17.8608L19.3496 18.9207L14.5981 14.1628L15.6594 13.1028L20.146 17.5955L20.4109 17.8608ZM19.5942 18.8547Q19.7444 18.7058 19.7505 18.4944Q19.7566 18.2827 19.6152 18.1255L19.894 17.8748L20.1448 18.1536L19.5872 18.655L19.3364 18.3762L19.6152 18.1255Q19.7566 18.2827 19.7505 18.4944Q19.7444 18.7058 19.5942 18.8547L19.3303 18.5881L19.5967 18.3242L20.1245 18.8572L19.8579 19.1211L19.5942 18.8547ZM19.8555 19.6514L18.7998 18.5857L19.0664 18.3218Q19.0034 18.384 19.0007 18.4727Q18.9983 18.561 19.0574 18.6267L18.8069 18.3479L19.9224 17.3452L20.1731 17.624Q20.3411 17.811 20.4255 18.0461Q20.5073 18.2737 20.5002 18.5159Q20.4932 18.7583 20.3984 18.9805Q20.3005 19.2107 20.1218 19.3875L19.8555 19.6514ZM18.8555 19.5945L19.5942 18.8547L19.8594 19.1196L19.5945 19.385L19.0637 18.855L19.3289 18.5896L19.5942 18.8547L18.8555 19.5945L18.5901 19.3293L18.855 19.0642L19.3857 19.594L19.1208 19.8594L18.8555 19.5945ZM19.1211 20.3896L18.0598 19.3298L19.3284 18.0593L20.3899 19.1191L19.386 20.1243L19.1211 20.3896ZM18.4807 19.7507Q18.7007 19.7507 18.8555 19.5945L19.1218 19.8584L18.8579 20.1248L18.325 19.5969L18.5889 19.3306L18.8555 19.5945Q18.7004 19.7507 18.4807 19.7507L18.4807 19.3757L18.8557 19.3757L18.8557 20.1257L18.4807 20.1257L18.4807 19.7507ZM18.1057 20.5007L18.1057 19.0007L18.4807 19.0007Q18.3877 19.0007 18.3225 19.0667L18.5864 18.8003L19.6521 19.8557L19.3882 20.1223Q19.2083 20.304 18.9724 20.4023Q18.7363 20.5007 18.4807 20.5007L18.1057 20.5007ZM18.106 19.5945Q18.261 19.7507 18.4807 19.7507L18.4807 20.1257L18.1057 20.1257L18.1057 19.3757L18.4807 19.3757L18.4807 19.7507Q18.261 19.7507 18.106 19.5945L18.3726 19.3306L18.6365 19.5969L18.1035 20.1248L17.8396 19.8584L18.106 19.5945ZM17.3093 19.8557L18.375 18.8003L18.6389 19.0667Q18.5737 19.0007 18.4807 19.0007L18.8557 19.0007L18.8557 20.5007L18.4807 20.5007Q18.2251 20.5007 17.989 20.4023Q17.7532 20.304 17.5732 20.1223L17.3093 19.8557ZM13.8848 15.3672L18.1062 19.5945L17.8408 19.8594L17.5757 19.594L18.1064 19.0642L18.3713 19.3293L18.1062 19.5945L13.8848 15.3672L14.1499 15.1021L14.415 15.3674L13.8843 15.8975L13.6194 15.6321L13.8848 15.3672ZM13.0889 15.6318L14.1504 14.5718L18.9019 19.3298L17.8403 20.3896L13.354 15.897L13.0889 15.6318ZM13.5681 14.9866Q13.7092 15.1912 13.8848 15.3672L13.6191 15.6321L13.3542 15.3665L13.8853 14.8367L14.1501 15.1023L13.8848 15.3672Q13.7092 15.1912 13.5681 14.9866L13.8767 14.7737L14.0896 15.0825L13.4722 15.5083L13.2593 15.1997L13.5681 14.9866ZM12.7378 15.1038L13.9724 14.2522L14.1853 14.5608Q14.2881 14.7095 14.4155 14.8374L14.6804 15.1028L13.6187 16.1624L13.3538 15.897Q13.1304 15.6729 12.9507 15.4126L12.7378 15.1038ZM12.7766 13.9299L13.5681 14.9866L13.2678 15.2114L13.0432 14.9114L13.6433 14.4617L13.8682 14.762L13.5681 14.9866L12.7766 13.9299L13.0767 13.7051L13.3015 14.0051L12.7012 14.4548L12.4763 14.1545L12.7766 13.9299ZM11.9514 14.0793L13.1521 13.1802L14.3931 14.8372L13.1926 15.7363L12.1763 14.3794L11.9514 14.0793ZM8.16455 15.5469Q9.42163 15.5471 10.6079 15.1311Q11.7942 14.7153 12.7766 13.9299L13.0107 14.2227L12.7178 14.4568L12.2495 13.8711L12.5422 13.637L12.7766 13.9299Q11.7942 14.7153 10.6079 15.1311Q9.42163 15.5471 8.16455 15.5469L8.16479 15.1719L8.53979 15.1719L8.53955 15.9219L8.16455 15.9219L8.16455 15.5469ZM7.78931 16.2966L7.78979 14.7966L8.16479 14.7969Q9.29395 14.7971 10.3599 14.4233Q11.4255 14.0498 12.3081 13.344L12.6011 13.1099L13.5378 14.2815L13.2449 14.5156Q12.1628 15.3809 10.8562 15.8389Q9.54907 16.2971 8.16431 16.2969L7.78931 16.2966ZM0.938232 9.80225Q1.22388 11.0496 1.90723 12.1235Q2.573 13.1697 3.5459 13.9431Q4.51855 14.7163 5.68701 15.1284Q6.88672 15.5513 8.16455 15.5469L8.16602 15.9219L7.79102 15.9231L7.78833 15.1731L8.16333 15.1719L8.16455 15.5469Q6.88696 15.5513 5.68701 15.1282Q4.51831 14.7163 3.5459 13.9431Q2.57324 13.1699 1.90747 12.1238Q1.22388 11.0493 0.938232 9.80225L1.30396 9.71851L1.38745 10.084L0.656494 10.2515L0.572754 9.88599L0.938232 9.80225ZM0.123535 9.604L1.58569 9.26929L1.66943 9.63477Q1.92603 10.7559 2.54028 11.7209Q3.13843 12.6611 4.01245 13.356Q4.88647 14.0508 5.93628 14.4209Q7.01392 14.8008 8.16211 14.7969L8.53711 14.7954L8.54224 16.2954L8.16724 16.2969Q6.75952 16.3018 5.43774 15.8357Q4.15039 15.3818 3.0791 14.5303Q2.00781 13.6785 1.27441 12.5261Q0.521729 11.343 0.207275 9.96973L0.123535 9.604ZM4.94385 1.479Q3.7915 2.03247 2.89575 2.93628Q2.02319 3.81689 1.48389 4.9375Q0.944824 6.05786 0.800537 7.29004Q0.652832 8.55493 0.938232 9.80225L0.572754 9.88599L0.489014 9.52026L1.22021 9.35303L1.30396 9.71851L0.938232 9.80225Q0.652832 8.55493 0.800781 7.28979Q0.944824 6.05762 1.48389 4.9375Q2.02295 3.81714 2.89575 2.93652Q3.79175 2.03247 4.94385 1.479L5.1062 1.81689L4.76807 1.97949L4.44336 1.30322L4.78149 1.14087L4.94385 1.479ZM4.95703 0.640625L5.60645 1.99268L5.26855 2.15503Q4.2334 2.65234 3.42847 3.4646Q2.64429 4.25586 2.15967 5.2627Q1.67505 6.26953 1.54565 7.37695Q1.4126 8.51367 1.66943 9.63477L1.75317 10.0005L0.291016 10.3352L0.207275 9.96973Q-0.107178 8.59619 0.0556641 7.20288Q0.214355 5.84595 0.808105 4.6123Q1.40186 3.37842 2.36304 2.40845Q3.3501 1.4126 4.6189 0.802979L4.95703 0.640625ZM13.9331 3.55981Q13.1404 2.55615 12.0627 1.88013Q11.0129 1.22144 9.80273 0.941406Q8.59277 0.661133 7.3606 0.791504Q6.09595 0.925537 4.94385 1.479L4.78149 1.14087L5.11938 0.978516L5.44409 1.65454L5.1062 1.81689L4.94385 1.479Q6.0957 0.925537 7.36084 0.791748Q8.59277 0.661133 9.80273 0.941406Q11.0127 1.22144 12.0625 1.88013Q13.1406 2.5564 13.9331 3.55981L13.6389 3.79224L13.4065 3.49805L13.9951 3.0332L14.2275 3.32739L13.9331 3.55981ZM14.7542 3.38916L13.5771 4.31909L13.3447 4.02466Q12.6323 3.1228 11.6641 2.51538Q10.7207 1.92358 9.63354 1.67188Q8.54639 1.42041 7.4397 1.5376Q6.30371 1.65771 5.26855 2.15503L4.93042 2.31738L4.28101 0.965332L4.6189 0.802979Q5.88818 0.193359 7.28174 0.0456543Q8.63892 -0.0979004 9.97192 0.210693Q11.3047 0.519043 12.4612 1.24463Q13.6487 1.9895 14.5217 3.09497L14.7542 3.38916ZM13.8848 12.7991Q14.688 11.8037 15.1094 10.6023Q15.5198 9.43164 15.5264 8.18799Q15.533 6.94409 15.1348 5.76953Q14.7258 4.56348 13.9331 3.55981L14.2275 3.32739L14.46 3.62158L13.8713 4.08643L13.6389 3.79224L13.9331 3.55981Q14.7258 4.56348 15.1348 5.76978Q15.533 6.94434 15.5264 8.18799Q15.5198 9.4314 15.1094 10.6021Q14.6877 11.804 13.8848 12.7991L13.5928 12.5635L13.8284 12.2717L14.4119 12.7427L14.1765 13.0344L13.8848 12.7991ZM14.2327 13.5618L13.0654 12.6199L13.301 12.3279Q14.0229 11.4336 14.4016 10.3538Q14.7705 9.30176 14.7764 8.18408Q14.7822 7.06616 14.4243 6.0105Q14.0571 4.92676 13.3447 4.02466L13.1123 3.73047L14.2893 2.80078L14.5217 3.09497Q15.3948 4.2002 15.845 5.52856Q16.2834 6.82251 16.2764 8.19189Q16.2693 9.56128 15.8171 10.8503Q15.3528 12.1741 14.4683 13.27L14.2327 13.5618ZM14.9399 13.5283L13.8848 12.7991L14.0979 12.4905L14.4062 12.7036L13.98 13.3208L13.6714 13.1074L13.8848 12.7991L14.9399 13.5283L14.7268 13.8367L14.4182 13.6235L14.8447 13.0066L15.1531 13.2197L14.9399 13.5283ZM15.6748 13.1243L14.8223 14.3584L13.1499 13.2029L14.0024 11.9688L15.3665 12.9111L15.6748 13.1243ZM15.3938 13.8982Q15.188 13.6873 14.9399 13.5283L15.1423 13.2124L15.458 13.4148L15.0535 14.0464L14.7375 13.844L14.9399 13.5283Q15.188 13.6873 15.3938 13.8982L15.1255 14.1599L14.8635 13.8916L15.4004 13.3679L15.6621 13.6362L15.3938 13.8982ZM16.1926 13.6428L15.1189 14.6902L14.8569 14.4219Q14.7112 14.2725 14.5354 14.1597L14.2195 13.9573L15.0291 12.6943L15.3447 12.8967Q15.665 13.1021 15.9307 13.3743L16.1926 13.6428ZM8.16479 13.4329Q7.09155 13.4329 6.11084 13.0173Q5.16382 12.6162 4.43359 11.8853Q3.70337 11.1541 3.30273 10.2058Q2.88794 9.22363 2.88794 8.14868L3.26294 8.14868L3.26294 8.52368L2.51294 8.52368L2.51294 8.14868L2.88794 8.14868Q2.88794 9.22388 3.30249 10.2053Q3.70312 11.1536 4.43359 11.8853Q5.16406 12.6167 6.11084 13.0178Q7.09082 13.4329 8.16479 13.4329L8.16479 13.8079L7.78979 13.8079L7.78979 13.0579L8.16479 13.0579L8.16479 13.4329ZM8.53979 12.6829L8.53979 14.1829L8.16479 14.1829Q6.93872 14.1829 5.81836 13.7083Q4.73682 13.2502 3.90283 12.415Q3.06909 11.5801 2.61157 10.4973Q2.13794 9.37598 2.13794 8.14868L2.13794 7.77368L3.63794 7.77368L3.63794 8.14868Q3.63794 9.07178 3.99365 9.91382Q4.3374 10.7275 4.96411 11.3552Q5.59106 11.9829 6.40332 12.3269Q7.2439 12.6829 8.16479 12.6829L8.53979 12.6829ZM11.896 11.8853Q11.1538 12.6284 10.1841 13.0305Q9.21436 13.4329 8.16479 13.4329L8.16479 13.0579L8.53979 13.0579L8.53979 13.8079L8.16479 13.8079L8.16479 13.4329Q9.21436 13.4329 10.1841 13.0305Q11.1538 12.6284 11.896 11.8853L12.1614 12.1501L11.8965 12.4155L11.3657 11.8855L11.6306 11.6201L11.896 11.8853ZM11.6304 11.0898L12.6917 12.1497L12.4268 12.415Q11.5791 13.2639 10.4714 13.7234Q9.36377 14.1829 8.16479 14.1829L7.78979 14.1829L7.78979 12.6829L8.16479 12.6829Q9.06494 12.6829 9.89673 12.3379Q10.7285 11.9929 11.3652 11.3552L11.6304 11.0898ZM13.4417 8.14868Q13.4417 9.19971 13.0398 10.1709Q12.6382 11.1418 11.896 11.8853L11.6306 11.6201L11.8958 11.3547L12.4263 11.8848L12.1614 12.1501L11.896 11.8853Q12.6382 11.1418 13.0398 10.1709Q13.4417 9.19971 13.4417 8.14868L13.8167 8.14868L13.8167 8.52368L13.0667 8.52368L13.0667 8.14868L13.4417 8.14868ZM12.6917 7.77368L14.1917 7.77368L14.1917 8.14868Q14.1917 9.34888 13.7329 10.4575Q13.2742 11.5664 12.4268 12.415L12.1619 12.6804L11.1003 11.6206L11.3652 11.3552Q12.0022 10.7175 12.3469 9.88428Q12.6917 9.05078 12.6917 8.14868L12.6917 7.77368ZM8.16479 2.8645Q9.23804 2.8645 10.2188 3.28003Q11.1658 3.68115 11.896 4.41235Q12.6262 5.14331 13.0269 6.0918Q13.4417 7.07397 13.4417 8.14868L13.0667 8.14868L13.0667 7.77368L13.8167 7.77368L13.8167 8.14868L13.4417 8.14868Q13.4417 7.07349 13.0271 6.09204Q12.6265 5.1438 11.896 4.41235Q11.1655 3.68066 10.2188 3.27979Q9.23853 2.8645 8.16479 2.8645L8.16479 2.4895L8.53979 2.4895L8.53979 3.2395L8.16479 3.2395L8.16479 2.8645ZM7.78979 3.6145L7.78979 2.1145L8.16479 2.1145Q9.39087 2.1145 10.5112 2.58911Q11.5928 3.04712 12.4268 3.88232Q13.2605 4.71729 13.718 5.80029Q14.1917 6.92163 14.1917 8.14868L14.1917 8.52368L12.6917 8.52368L12.6917 8.14868Q12.6917 7.22583 12.3359 6.38354Q11.9922 5.56982 11.3652 4.94214Q10.7385 4.3147 9.92627 3.9707Q9.08569 3.6145 8.16479 3.6145L7.78979 3.6145ZM2.88794 8.14868Q2.88794 7.07397 3.30273 6.0918Q3.70337 5.14331 4.43359 4.41235Q5.16382 3.68115 6.11084 3.28003Q7.09155 2.8645 8.16479 2.8645L8.16479 3.2395L7.78979 3.2395L7.78979 2.4895L8.16479 2.4895L8.16479 2.8645Q7.09082 2.8645 6.11084 3.27979Q5.16406 3.68066 4.43359 4.41235Q3.70312 5.1438 3.30249 6.09204Q2.88794 7.07349 2.88794 8.14868L2.51294 8.14868L2.51294 7.77368L3.26294 7.77368L3.26294 8.14868L2.88794 8.14868ZM3.63794 8.52368L2.13794 8.52368L2.13794 8.14868Q2.13794 6.92163 2.61157 5.80029Q3.06909 4.71729 3.90283 3.88232Q4.73682 3.04712 5.81836 2.58911Q6.93872 2.1145 8.16479 2.1145L8.53979 2.1145L8.53979 3.6145L8.16479 3.6145Q7.2439 3.6145 6.40332 3.9707Q5.59106 4.3147 4.96411 4.94214Q4.3374 5.56982 3.99365 6.38354Q3.63794 7.22583 3.63794 8.14868L3.63794 8.52368Z" fill="#FFFFFF" fill-opacity="1.000000" fill-rule="nonzero"/>
</svg>
