<?xml version="1.0" encoding="utf-8"?><svg viewBox="0 0 127.969 32" xmlns="http://www.w3.org/2000/svg" xmlns:xlink="http://www.w3.org/1999/xlink"><style>:root>svg{display:none}:root>svg:target{display:block}</style><svg fill="none" viewBox="0 0 21 21" id="icons--cart" xmlns="http://www.w3.org/2000/svg"><defs><clipPath id="ba"><path fill="#fff" fill-opacity="0" d="M0 0h21v21H0z"/></clipPath></defs><path fill="none" d="M0 0h21v21H0z"/><g clip-path="url(#ba)" fill="#000"><path d="M6.766 13.577h11.158a.615.615 0 0 0 .591-.447l2.461-8.613a.615.615 0 0 0-.591-.784H5.347l-.44-1.98a.615.615 0 0 0-.6-.481H.615a.615.615 0 1 0 0 1.23h3.198l2.221 9.996a1.849 1.849 0 0 0-1.112 1.694c0 1.017.828 1.845 1.846 1.845h11.156a.615.615 0 1 0 0-1.23H6.768a.616.616 0 0 1-.002-1.23Zm12.803-8.614-2.11 7.383H7.262l-1.64-7.383h13.948ZM6.152 17.883c0 1.017.828 1.846 1.846 1.846a1.848 1.848 0 0 0 1.846-1.846 1.848 1.848 0 0 0-1.846-1.846 1.848 1.848 0 0 0-1.846 1.846Zm1.846-.615a.616.616 0 1 1-.002 1.232.616.616 0 0 1 .002-1.232ZM14.848 17.883c0 1.017.828 1.846 1.845 1.846a1.848 1.848 0 0 0 1.846-1.846 1.848 1.848 0 0 0-1.846-1.846 1.848 1.848 0 0 0-1.845 1.846Zm1.845-.615a.616.616 0 1 1-.001 1.232.616.616 0 0 1 .001-1.232Z"/></g></svg><svg fill="none" viewBox="0 0 32 32" id="icons--eye" xmlns="http://www.w3.org/2000/svg"><defs><clipPath id="ca"><path fill="#fff" fill-opacity="0" d="M0 0h32v32H0z"/></clipPath></defs><path fill="none" d="M0 0h32v32H0z"/><g clip-path="url(#ca)"><path d="m2.125 16 1.637 1.637c6.75 6.75 17.732 6.75 24.482 0L29.874 16l-1.636-1.637c-6.75-6.75-17.732-6.75-24.482 0L2.125 16ZM16 23.887a18.445 18.445 0 0 1-13.081-5.412L.862 16.419a.6.6 0 0 1 0-.844l2.057-2.056c7.212-7.213 18.95-7.213 26.162 0l2.056 2.056a.6.6 0 0 1 0 .844l-2.056 2.056A18.445 18.445 0 0 1 16 23.887Z" fill="#000"/><path d="M3.762 17.637c6.75 6.75 17.732 6.75 24.482 0L29.874 16l-1.636-1.637c-6.75-6.75-17.732-6.75-24.482 0L2.125 16l1.637 1.637Zm-.843.838L.862 16.419a.6.6 0 0 1 0-.844l2.057-2.056c7.212-7.213 18.95-7.213 26.162 0l2.056 2.056a.6.6 0 0 1 0 .844l-2.056 2.056A18.445 18.445 0 0 1 16 23.887a18.445 18.445 0 0 1-13.081-5.412Z" stroke="#000" stroke-width=".3"/><path d="M16 11.469A4.534 4.534 0 0 0 11.469 16c0 2.5 2.031 4.531 4.531 4.531 2.5 0 4.531-2.031 4.531-4.531 0-2.5-2.031-4.531-4.531-4.531Zm0 10.25A5.726 5.726 0 0 1 10.281 16 5.726 5.726 0 0 1 16 10.281 5.73 5.73 0 0 1 21.719 16 5.722 5.722 0 0 1 16 21.719Z" fill="#000"/><path d="M11.469 16c0 2.5 2.031 4.531 4.531 4.531 2.5 0 4.531-2.031 4.531-4.531 0-2.5-2.031-4.531-4.531-4.531A4.534 4.534 0 0 0 11.469 16Zm-1.188 0A5.726 5.726 0 0 1 16 10.281 5.73 5.73 0 0 1 21.719 16 5.722 5.722 0 0 1 16 21.719 5.726 5.726 0 0 1 10.281 16Z" stroke="#000" stroke-width=".3"/></g></svg><svg fill="none" viewBox="0 0 10 18" id="icons--facebook" xmlns="http://www.w3.org/2000/svg"><path d="M9.5 3h-3a1 1 0 0 0-1 1v3h4a.35.35 0 0 1 .34.46l-.74 2.2a.5.5 0 0 1-.47.34H5.5v7.5a.5.5 0 0 1-.5.5H2.5a.5.5 0 0 1-.5-.5V10H.5a.5.5 0 0 1-.5-.5v-2A.5.5 0 0 1 .5 7H2V4a4 4 0 0 1 4-4h3.5a.5.5 0 0 1 .5.5v2a.5.5 0 0 1-.5.5Z" fill="#707070"/><path d="M6.5 3a1 1 0 0 0-1 1v3h4a.35.35 0 0 1 .34.46l-.74 2.2a.5.5 0 0 1-.47.34H5.5v7.5a.5.5 0 0 1-.5.5H2.5a.5.5 0 0 1-.5-.5V10H.5a.5.5 0 0 1-.5-.5v-2A.5.5 0 0 1 .5 7H2V4a4 4 0 0 1 4-4h3.5a.5.5 0 0 1 .5.5v2a.5.5 0 0 1-.5.5h-3Z"/></svg><svg fill="none" viewBox="0 0 25 25" id="icons--heart" xmlns="http://www.w3.org/2000/svg"><defs><clipPath id="ea"><path fill="#fff" fill-opacity="0" d="M0 0h25v25H0z"/></clipPath></defs><path fill="none" d="M0 0h25v25H0z"/><g clip-path="url(#ea)"><path d="M11.343 23.129a1.647 1.647 0 0 0 2.335 0l9.16-9.16A7.342 7.342 0 0 0 25 8.762a7.319 7.319 0 0 0-2.156-5.21 7.307 7.307 0 0 0-5.205-2.156 7.31 7.31 0 0 0-5.134 2.085 7.334 7.334 0 0 0-5.149-2.095 7.32 7.32 0 0 0-5.2 2.15A7.319 7.319 0 0 0 0 8.748a7.32 7.32 0 0 0 2.162 5.206l9.18 9.176Zm-8.3-18.704a6.07 6.07 0 0 1 4.318-1.79c1.632 0 3.171.638 4.329 1.795l.377.377a.625.625 0 0 0 .887 0l.367-.367a6.077 6.077 0 0 1 4.328-1.794 6.07 6.07 0 0 1 4.318 1.79 6.069 6.069 0 0 1 1.79 4.322 6.074 6.074 0 0 1-1.795 4.323l-9.166 9.166a.423.423 0 0 1-.571 0l-9.176-9.176a6.074 6.074 0 0 1-1.795-4.323 6.09 6.09 0 0 1 1.79-4.323Z" fill="#000"/><path d="M12.51 23.613c.434 0 .862-.178 1.168-.484l9.16-9.16A7.342 7.342 0 0 0 25 8.762a7.319 7.319 0 0 0-2.156-5.21 7.307 7.307 0 0 0-5.205-2.156 7.31 7.31 0 0 0-5.134 2.085 7.334 7.334 0 0 0-5.149-2.095 7.32 7.32 0 0 0-5.2 2.15A7.319 7.319 0 0 0 0 8.748a7.32 7.32 0 0 0 2.162 5.206l9.18 9.176c.312.311.73.484 1.168.484ZM7.361 2.636c1.632 0 3.171.637 4.329 1.794l.377.377a.625.625 0 0 0 .887 0l.367-.367a6.077 6.077 0 0 1 4.328-1.794 6.07 6.07 0 0 1 4.318 1.79 6.069 6.069 0 0 1 1.79 4.322 6.074 6.074 0 0 1-1.795 4.323l-9.166 9.166a.423.423 0 0 1-.571 0l-9.176-9.176a6.074 6.074 0 0 1-1.795-4.323 6.09 6.09 0 0 1 1.79-4.323 6.07 6.07 0 0 1 4.317-1.79Z" stroke="#000" stroke-width=".3"/></g></svg><svg fill="none" viewBox="0 0 18 18" id="icons--instagram" xmlns="http://www.w3.org/2000/svg"><mask id="fa" fill="#fff"><path d="M13 0H5a5 5 0 0 0-5 5v8a5 5 0 0 0 5 5h8a5 5 0 0 0 5-5V5a5 5 0 0 0-5-5Zm3.25 13A3.26 3.26 0 0 1 13 16.25H5A3.26 3.26 0 0 1 1.75 13V5A3.26 3.26 0 0 1 5 1.75h8A3.26 3.26 0 0 1 16.25 5v8Zm-2.5-7.75a1 1 0 1 0 0-2 1 1 0 0 0 0 2ZM9 4.5A4.5 4.5 0 1 0 13.5 9 4.49 4.49 0 0 0 9 4.5ZM6.25 9a2.75 2.75 0 1 0 5.5 0 2.75 2.75 0 0 0-5.5 0Z" clip-rule="evenodd" fill-rule="evenodd"/></mask><path d="M13 0H5a5 5 0 0 0-5 5v8a5 5 0 0 0 5 5h8a5 5 0 0 0 5-5V5a5 5 0 0 0-5-5Zm3.25 13A3.26 3.26 0 0 1 13 16.25H5A3.26 3.26 0 0 1 1.75 13V5A3.26 3.26 0 0 1 5 1.75h8A3.26 3.26 0 0 1 16.25 5v8Zm-2.5-7.75a1 1 0 1 0 0-2 1 1 0 0 0 0 2ZM9 4.5A4.5 4.5 0 1 0 13.5 9 4.49 4.49 0 0 0 9 4.5ZM6.25 9a2.75 2.75 0 1 0 5.5 0 2.75 2.75 0 0 0-5.5 0Z" clip-rule="evenodd" fill="#707070" fill-rule="evenodd" mask="url(#fa)"/></svg><svg fill="none" viewBox="0 0 18.53 18" id="icons--linkedin" xmlns="http://www.w3.org/2000/svg"><mask id="ga" fill="#fff"><path d="M0 2.118a2.118 2.118 0 1 1 4.235 0 2.118 2.118 0 0 1-4.235 0Zm18.53 8.904a4.881 4.881 0 0 0-3.76-4.828 4.722 4.722 0 0 0-4.182 1.133v-.445a.53.53 0 0 0-.53-.53H7.413a.53.53 0 0 0-.53.53V17.47c0 .293.237.53.53.53h2.647a.53.53 0 0 0 .53-.53V11.5a2.192 2.192 0 0 1 1.757-2.203 2.118 2.118 0 0 1 2.478 2.118v6.057c0 .292.237.529.529.529H18a.53.53 0 0 0 .53-.53v-6.448ZM4.234 6.882V17.47a.53.53 0 0 1-.53.53H1.06a.53.53 0 0 1-.53-.53V6.883a.53.53 0 0 1 .53-.53h2.647a.53.53 0 0 1 .53.53Z" clip-rule="evenodd" fill-rule="evenodd"/></mask><path d="M0 2.118a2.118 2.118 0 1 1 4.235 0 2.118 2.118 0 0 1-4.235 0Zm18.53 8.904a4.881 4.881 0 0 0-3.76-4.828 4.722 4.722 0 0 0-4.182 1.133v-.445a.53.53 0 0 0-.53-.53H7.413a.53.53 0 0 0-.53.53V17.47c0 .293.237.53.53.53h2.647a.53.53 0 0 0 .53-.53V11.5a2.192 2.192 0 0 1 1.757-2.203 2.118 2.118 0 0 1 2.478 2.118v6.057c0 .292.237.529.529.529H18a.53.53 0 0 0 .53-.53v-6.448ZM4.234 6.882V17.47a.53.53 0 0 1-.53.53H1.06a.53.53 0 0 1-.53-.53V6.883a.53.53 0 0 1 .53-.53h2.647a.53.53 0 0 1 .53.53Z" clip-rule="evenodd" fill="#707070" fill-rule="evenodd" mask="url(#ga)"/></svg><svg fill="none" viewBox="0 0 21 21" id="icons--profile" xmlns="http://www.w3.org/2000/svg"><mask id="ha" fill="#fff"><path d="M15.502 5.5a5 5 0 0 1-5.002 5 5 5 0 1 1 5.002-5Zm-2 0a3 3 0 1 0-6.002 0 3 3 0 0 0 6.001 0Zm6.891 13.55-1.89-3.79a5.002 5.002 0 0 0-4.472-2.76H6.97a5.002 5.002 0 0 0-4.471 2.76l-1.89 3.79a1 1 0 0 0 .89 1.45h18.005a1 1 0 0 0 .89-1.45ZM4.288 16.16l-1.17 2.34h14.764l-1.17-2.34a3 3 0 0 0-2.68-1.66H6.968a3 3 0 0 0-2.68 1.66Z" clip-rule="evenodd" fill-rule="evenodd"/></mask><path d="M15.502 5.5a5 5 0 0 1-5.002 5 5 5 0 1 1 5.002-5Zm-2 0a3 3 0 1 0-6.002 0 3 3 0 0 0 6.001 0Zm6.891 13.55-1.89-3.79a5.002 5.002 0 0 0-4.472-2.76H6.97a5.002 5.002 0 0 0-4.471 2.76l-1.89 3.79a1 1 0 0 0 .89 1.45h18.005a1 1 0 0 0 .89-1.45ZM4.288 16.16l-1.17 2.34h14.764l-1.17-2.34a3 3 0 0 0-2.68-1.66H6.968a3 3 0 0 0-2.68 1.66Z" clip-rule="evenodd" fill="#000" fill-rule="evenodd" mask="url(#ha)"/><path d="M16.002 5.5q0 1.119-.433 2.141-.418.987-1.179 1.748-.761.761-1.748 1.179Q11.619 11 10.5 11t-2.141-.432Q7.37 10.15 6.61 9.389q-.761-.76-1.179-1.748Q5 6.62 5 5.5t.432-2.141Q5.85 2.372 6.61 1.61 7.371.85 8.359.432 9.38 0 10.5 0t2.142.432q.987.418 1.748 1.179.761.76 1.179 1.748.433 1.022.433 2.141Zm-1 0q0-.916-.354-1.751-.341-.808-.965-1.43-.623-.624-1.43-.965Q11.415 1 10.5 1q-.916 0-1.752.354-.808.341-1.431.964t-.965 1.43Q6 4.585 6 5.5t.353 1.751q.342.808.965 1.43.623.624 1.431.965Q9.584 10 10.5 10t1.752-.354q.808-.341 1.431-.964t.965-1.43q.354-.836.354-1.752Zm-2 0q0-.509-.197-.973-.19-.448-.536-.795-.347-.346-.796-.536Q11.01 3 10.5 3q-.509 0-.973.196-.449.19-.795.536-.347.347-.536.795-.197.464-.197.973 0 .509.197.973.19.448.536.795.346.346.795.536Q9.99 8 10.5 8q.51 0 .973-.196.45-.19.796-.536.346-.347.536-.795Q13 6.009 13 5.5Zm1 0q0 .712-.276 1.363-.266.628-.75 1.112-.485.484-1.113.75Q11.213 9 10.5 9q-.712 0-1.363-.275-.628-.266-1.112-.75-.485-.484-.75-1.112-.276-.651-.276-1.363t.276-1.363q.265-.628.75-1.112.484-.484 1.112-.75Q9.788 2 10.5 2t1.363.275q.628.266 1.113.75.484.484.75 1.112Q14 4.788 14 5.5Zm5.944 13.773-1.89-3.79q-.284-.565-.712-1.03-.42-.456-.948-.782t-1.125-.497Q14.664 13 14.031 13H6.97q-.633 0-1.24.174-.596.171-1.125.497-.528.326-.948.783-.428.464-.711 1.03l-1.89 3.79q-.0catalog__iconsсф6.117-.054.247.005.13.073.24.068.111.181.175Q1.37 20 1.5 20h18.004q.128 0 .242-.064.113-.064.181-.174.068-.111.074-.241.005-.13-.053-.246l-.001-.002Zm.894-.448q.175.348.159.738-.017.39-.22.722-.205.332-.545.523-.34.19-.731.192H1.496q-.39-.001-.73-.192-.34-.191-.544-.523-.204-.333-.22-.722-.017-.39.158-.736l1.89-3.791q.347-.691.87-1.26.513-.557 1.159-.956.646-.398 1.374-.607Q6.195 12 6.97 12h7.062q.774 0 1.516.213.729.209 1.374.607.646.399 1.16.957.522.568.869 1.26l1.89 3.79v-.002ZM4.735 16.384l-1.17 2.34-.447-.224V18h14.764v.5l-.447.224-1.17-2.34q-.317-.636-.92-1.01-.604-.373-1.315-.374H6.97q-.71.001-1.314.375-.603.373-.92 1.008Zm-.894-.447q.22-.44.552-.803.326-.355.737-.61.41-.254.874-.387.472-.136.965-.137h7.063q.492 0 .964.137.464.133.874.387.411.255.737.61.332.362.552.802L18.692 19H2.309l1.532-3.064Z" fill="#FFF"/></svg><svg fill="none" viewBox="0 0 19.751 19.75" id="icons--searcher" xmlns="http://www.w3.org/2000/svg"><mask id="ia" fill="#fff"><path d="m19.24 17.75-4.221-4.227a2.567 2.567 0 0 0-.454-.37l-1.056-.73a7.406 7.406 0 0 0 .049-9.238 7.38 7.38 0 0 0-8.99-2.081A7.4 7.4 0 0 0 7.79 15.172c1.676 0 3.303-.57 4.612-1.617l.792 1.056c.094.137.2.264.316.38l4.222 4.228a.527.527 0 0 0 .75 0l.738-.74a.53.53 0 0 0 .021-.729ZM2.513 7.773a5.28 5.28 0 0 0 5.277 5.285c1.4 0 2.741-.557 3.73-1.548a5.288 5.288 0 0 0 1.546-3.737A5.28 5.28 0 0 0 7.79 2.49a5.28 5.28 0 0 0-5.277 5.284Z" clip-rule="evenodd" fill-rule="evenodd"/></mask><path d="m19.24 17.75-4.221-4.227a2.567 2.567 0 0 0-.454-.37l-1.056-.73a7.406 7.406 0 0 0 .049-9.238 7.38 7.38 0 0 0-8.99-2.081A7.4 7.4 0 0 0 7.79 15.172c1.676 0 3.303-.57 4.612-1.617l.792 1.056c.094.137.2.264.316.38l4.222 4.228a.527.527 0 0 0 .75 0l.738-.74a.53.53 0 0 0 .021-.729ZM2.513 7.773a5.28 5.28 0 0 0 5.277 5.285c1.4 0 2.741-.557 3.73-1.548a5.288 5.288 0 0 0 1.546-3.737A5.28 5.28 0 0 0 7.79 2.49a5.28 5.28 0 0 0-5.277 5.284Z" clip-rule="evenodd" fill="#000" fill-rule="evenodd" mask="url(#ia)"/><path d="m18.975 18.015-4.222-4.227q-.179-.184-.39-.32l-.006-.003-1.393-.962.254-.315q.762-.945 1.162-2.085.39-1.112.396-2.292.006-1.181-.372-2.296-.388-1.145-1.14-2.098-.753-.953-1.776-1.594-.996-.626-2.145-.892Q8.194.666 7.025.79q-1.2.127-2.294.653-1.094.525-1.944 1.383-.828.836-1.34 1.9Q.935 5.789.798 6.958q-.14 1.201.13 2.385.272 1.185.92 2.204.633.993 1.556 1.727.923.734 2.033 1.125 1.138.402 2.351.398 1.195 0 2.32-.395 1.127-.395 2.06-1.14l.302-.242 1.027 1.373.005.005q.121.177.273.33l4.221 4.226q.046.046.11.046.063 0 .108-.045l.74-.74q.045-.045.046-.107.002-.061-.039-.107l.28-.25-.266.264Zm.53-.53.007.007.007.008q.242.268.231.63-.01.361-.266.614l-.737.74q-.127.127-.294.197-.167.07-.347.07-.181 0-.348-.07-.166-.07-.292-.197l-4.222-4.227q-.2-.2-.36-.432l.309-.214-.3.225-.792-1.057.3-.224.235.292q-1.032.826-2.28 1.263-1.246.437-2.565.437-1.343.004-2.604-.44-1.228-.433-2.25-1.246-1.022-.812-1.721-1.911Q.498 10.82.198 9.51q-.3-1.31-.145-2.639Q.204 5.577.771 4.4q.566-1.177 1.483-2.103.942-.95 2.152-1.531 1.21-.582 2.54-.723 1.295-.137 2.566.158 1.271.294 2.375.986 1.133.71 1.965 1.765.833 1.055 1.263 2.322.418 1.234.411 2.54-.007 1.307-.438 2.537-.443 1.263-1.287 2.308l-.292-.235.214-.309 1.055.73-.213.308.202-.316q.284.182.517.42l4.221 4.228ZM2.888 7.773q0 1 .385 1.911.372.881 1.05 1.56.68.68 1.559 1.053.91.386 1.908.386.975 0 1.875-.374.901-.374 1.59-1.064.69-.69 1.063-1.593.373-.902.373-1.879 0-.999-.385-1.91-.372-.881-1.05-1.561-.68-.68-1.559-1.052-.91-.386-1.907-.386-.998 0-1.908.386-.88.373-1.558 1.052-.679.68-1.051 1.56-.385.912-.385 1.911Zm-.75 0q0-1.15.444-2.202.429-1.016 1.211-1.799.782-.783 1.796-1.213 1.05-.445 2.2-.445 1.15 0 2.2.445 1.015.43 1.797 1.213.782.783 1.211 1.799.444 1.052.444 2.202 0 1.126-.43 2.166t-1.225 1.836q-.795.796-1.833 1.227-1.04.43-2.163.43-1.15 0-2.2-.444-1.015-.43-1.797-1.213-.782-.783-1.21-1.799-.445-1.051-.445-2.203Z" fill="#FFF"/></svg><svg fill="none" viewBox="0 0 20 17" id="icons--twitter" xmlns="http://www.w3.org/2000/svg"><path d="M19.97 2.464a7.988 7.988 0 0 1-1.846 1.778v.55a12.19 12.19 0 0 1-3.621 8.69A12.179 12.179 0 0 1 5.773 17 12.217 12.217 0 0 1 .33 15.74a.25.25 0 0 1-.15-.23v-.11a.26.26 0 0 1 .26-.26 8.844 8.844 0 0 0 5.112-1.837 4.363 4.363 0 0 1-3.884-2.558.26.26 0 0 1 .26-.36c.51.052 1.025.004 1.518-.14A4.355 4.355 0 0 1 0 6.44a.26.26 0 0 1 .36-.26c.497.22 1.033.335 1.577.34A4.277 4.277 0 0 1 .23 1.585a.54.54 0 0 1 .91-.18A12.339 12.339 0 0 0 9.535 5.28a3.998 3.998 0 0 1-.12-1 4.352 4.352 0 0 1 7.499-2.937 8.675 8.675 0 0 0 2.387-.828.17.17 0 0 1 .18 0 .17.17 0 0 1 0 .18 4.365 4.365 0 0 1-1.758 1.998 8.563 8.563 0 0 0 1.997-.48.16.16 0 0 1 .18 0 .17.17 0 0 1 .07.25Z" fill="#707070"/><path d="M18.123 4.242v.55a12.19 12.19 0 0 1-3.62 8.69A12.179 12.179 0 0 1 5.773 17 12.217 12.217 0 0 1 .33 15.74a.25.25 0 0 1-.15-.23v-.11a.26.26 0 0 1 .26-.26 8.844 8.844 0 0 0 5.112-1.837 4.363 4.363 0 0 1-3.884-2.558.26.26 0 0 1 .26-.36c.51.052 1.025.004 1.518-.14A4.355 4.355 0 0 1 0 6.44a.26.26 0 0 1 .36-.26c.497.22 1.033.335 1.577.34A4.277 4.277 0 0 1 .23 1.585a.54.54 0 0 1 .91-.18A12.339 12.339 0 0 0 9.535 5.28a3.998 3.998 0 0 1-.12-1 4.352 4.352 0 0 1 7.499-2.937 8.675 8.675 0 0 0 2.387-.828.17.17 0 0 1 .18 0 .17.17 0 0 1 0 .18 4.365 4.365 0 0 1-1.758 1.998 8.563 8.563 0 0 0 1.997-.48.16.16 0 0 1 .18 0 .17.17 0 0 1 .07.25 7.988 7.988 0 0 1-1.848 1.778Z"/></svg><svg fill="none" viewBox="0 0 127.969 25.771" id="logo" xmlns="http://www.w3.org/2000/svg"><path d="M38.145.41V25.6h-4.102V14.254h-9.502V11.45h9.502V.41h4.102ZM18.97.41h4.17V25.6h-4.17V.41Zm25.02 12.476c0-2.028.238-3.817.717-5.366.501-1.573 1.185-2.894 2.05-3.965.89-1.094 1.926-1.926 3.111-2.495a10.345 10.345 0 0 1 3.93-1.026v3.418a5.76 5.76 0 0 0-2.187.718c-.683.387-1.276.957-1.777 1.709-.501.752-.9 1.709-1.196 2.871-.296 1.162-.456 2.54-.479 4.136.023 1.618.183 3.008.479 4.17.296 1.139.695 2.096 1.196 2.87.524.776 1.128 1.368 1.811 1.778a5.3 5.3 0 0 0 2.154.684v3.383a10.69 10.69 0 0 1-3.897-.99 9.48 9.48 0 0 1-3.144-2.496c-.866-1.094-1.55-2.427-2.051-3.999-.479-1.572-.718-3.372-.718-5.4ZM55.165.034a9.59 9.59 0 0 1 3.862.991 8.974 8.974 0 0 1 3.11 2.53c.89 1.07 1.584 2.392 2.086 3.965.5 1.549.752 3.338.752 5.366 0 2.028-.251 3.828-.752 5.4-.502 1.572-1.197 2.905-2.085 4a9.241 9.241 0 0 1-3.077 2.494c-1.184.57-2.483.9-3.896.991v-3.383a5.76 5.76 0 0 0 2.188-.718c.683-.41 1.276-.991 1.777-1.743.501-.775.9-1.732 1.196-2.871.296-1.162.456-2.552.479-4.17-.023-1.618-.183-2.997-.479-4.136-.296-1.162-.706-2.12-1.23-2.871-.502-.775-1.094-1.356-1.778-1.743a5.029 5.029 0 0 0-2.153-.718V.034ZM70.718.41h4.101V25.6h-4.101V.41Zm7.246 0c1.07 0 2.13.171 3.179.513a8.4 8.4 0 0 1 2.802 1.538 7.674 7.674 0 0 1 2.017 2.495c.524.957.786 2.04.786 3.247 0 1.276-.216 2.438-.65 3.487a7.309 7.309 0 0 1-1.81 2.597c-.776.706-1.71 1.253-2.804 1.64-1.093.388-2.301.582-3.623.582h-1.64V13.5h2.358c.501 0 .991-.08 1.47-.24a3.94 3.94 0 0 0 1.367-.854c.41-.387.74-.923.991-1.606.25-.707.376-1.572.376-2.598 0-.41-.057-.877-.17-1.401a3.797 3.797 0 0 0-.719-1.538c-.341-.502-.831-.912-1.47-1.23-.637-.343-1.48-.513-2.529-.513h-1.674V.41h1.743Zm13.433 0h4.101V25.6h-4.102V.41Zm7.246 0c1.07 0 2.13.171 3.178.513a8.4 8.4 0 0 1 2.803 1.538 7.686 7.686 0 0 1 2.017 2.495c.524.957.786 2.04.786 3.247 0 1.276-.217 2.438-.65 3.487a7.305 7.305 0 0 1-1.811 2.597c-.775.706-1.709 1.253-2.803 1.64-1.094.388-2.301.582-3.623.582H96.9V13.5h2.358c.501 0 .991-.08 1.47-.24a3.94 3.94 0 0 0 1.367-.854c.41-.387.74-.923.991-1.606.251-.707.376-1.572.376-2.598 0-.41-.057-.877-.171-1.401a3.793 3.793 0 0 0-.718-1.538c-.342-.502-.831-.912-1.469-1.23-.639-.343-1.482-.513-2.53-.513H96.9V.41h1.744Zm13.569 0h4.17V25.6h-4.17V.41Zm14.697 13.843h-9.126V11.45h9.126v2.803Zm-9.126 8.237h10.186v3.11h-10.186v-3.11ZM127.969.41v3.11h-10.186V.41h10.186Z" fill="#000" fill-rule="evenodd"/><path d="M11.963 4.307a2.062 2.062 0 0 1-.41-.24c-.16-.114-.388-.216-.684-.307a5.452 5.452 0 0 0-1.128-.274c-.456-.068-1.037-.08-1.743-.034V0a17.52 17.52 0 0 1 3.042.342c1.048.182 1.891.478 2.53.888-.137.297-.297.627-.48.992-.181.341-.352.672-.512.99-.16.297-.296.548-.41.753a2.904 2.904 0 0 1-.205.342ZM.17 7.04c0-1.003.17-1.903.513-2.7A6.894 6.894 0 0 1 2.05 2.256 6.42 6.42 0 0 1 4.1.82 8.698 8.698 0 0 1 6.598.103V3.69c-.73.251-1.333.695-1.812 1.333-.478.616-.718 1.242-.718 1.88 0 .889.24 1.607.718 2.154.479.546 1.083 1.025 1.812 1.435v3.897a52.84 52.84 0 0 1-2.256-1.163 11.312 11.312 0 0 1-2.051-1.503A7.715 7.715 0 0 1 .752 9.74C.365 8.99.171 8.09.171 7.041Zm.547 13.945a8.65 8.65 0 0 0 1.196.547c.501.16 1.014.32 1.538.479.524.136 1.048.25 1.572.341a8.6 8.6 0 0 0 1.47.137h.103v3.247h-.069c-.547 0-1.116-.034-1.709-.102-.57-.046-1.15-.137-1.743-.274a10.68 10.68 0 0 1-1.709-.547A5.897 5.897 0 0 1 0 23.926l.718-2.94Zm7.28-9.81c.752.343 1.515.707 2.29 1.095a9.34 9.34 0 0 1 2.153 1.435 6.59 6.59 0 0 1 1.573 2.017c.41.797.615 1.788.615 2.973 0 .82-.16 1.618-.479 2.393a6.818 6.818 0 0 1-1.298 2.119c-.547.615-1.23 1.14-2.051 1.572-.82.433-1.755.718-2.803.855v-3.282c1.869-.455 2.803-1.697 2.803-3.725 0-.798-.262-1.458-.786-1.983-.524-.524-1.197-1.013-2.017-1.47v-3.998Z" fill="#A18A68" fill-rule="evenodd"/></svg></svg>